_________________________  Visit us at _________________________
  
http://p2pdl.com  ____________________________  http://p2pdl.com

Dabangg 2 2012 BRRip 720p x264 Hindi - ViZNU

Genre: Action | Comedy | Drama | Musical | Romance
Plot: Chulbul Pandey is transferred and promoted to Kanpur. 
He is happily married with Rajjo. Kanpur witness a lot of 
criminal activities daily and kidnapping, rape and murders 
are done in broad daylight. The main antagonist/villain is 
Baccha Bhaiyaa. Chulbul Pandey takes Baccha Bhaiya head on 
& remains 'Dabang' as always
drug-related murders and is forced to do the gang's bidding.
Director: Arbaaz Khan
Stars: Salman Khan, Kareena Kapoor, Sonakshi Sinha
Rated: Not Rated

Info: 
http://www.imdb.com/title/tt2112131/

General
Complete name                  : Dabangg 2 2012 BRRip 720p x264 Hindi - ViZNU.mp4
Format                         : MPEG-4
Format profile                 : Base Media
Codec ID                       : isom
File size                      : 697 MiB
Duration                       : 2h 3mn
Overall bit rate mode          : Variable
Overall bit rate               : 789 Kbps

Source                         : 720p BluRay DDR (Thanks)

Video
ID                             : 1
Format                         : AVC
Format/Info                    : Advanced Video Codec
Format profile                 : High 10@L4.1
Codec ID/Info                  : Advanced Video Coding
Duration                       : 2h 3mn
Bit rate                       : 703 Kbps
Width                          : 1 280 pixels
Height                         : 544 pixels
Display aspect ratio           : 2.35:1
Frame rate mode                : Constant
Frame rate                     : 24.000 fps
Bit depth                      : 10 bits
Scan type                      : Progressive
Bits/(Pixel*Frame)             : 0.042
Stream size                    : 621 MiB (89%)
Writing library                : x264 core 129 r2245 bc13772

Audio
Format                         : AAC
Format/Info                    : Advanced Audio Codec
Duration                       : 2h 3mn
Bit rate mode                  : Variable
Bit rate                       : 83.6 Kbps
Channel(s)                     : 2 channels
Channel positions              : Front: L R
Sampling rate                  : 48.0 KHz / 24.0 KHz
Stream size                    : 73.8 MiB (11%)
Language                       : Hindi

Subtitle                       : Yes (English)

Screens: 
http://ultraimg.com/images/FiCw7.jpg 
http://ultraimg.com/images/JBQp.jpg 
http://ultraimg.com/images/tk4MF.jpg 
http://ultraimg.com/images/SK95R.jpg

Thumbs: 
http://ultraimg.com/images/KXERl.jpg

----------------------------------------------------------------------------------------------------
Encoded using revolutionary 10bit encoding, which enables us to provide you more crispier 
and sharper images at small sizes, just make sure you follow our instructions without a fault.
Recommend to you to use latest version of VLC player. Install K-Lite Codec Pack or shark007 codecs
in case of any kind of problem in playback (For non-VLC Media Player users). Alternatively, install
Core AVC codecs, the fastest decoder that there is coupled with Community Center Codec Pack and play
on Windows Media Player Classic. Check sample to be sure.
Enjoy!

Greets to: VYTO, a2zRG, MusiK_KinG, Kuroyukihime, TorDigger, Ash968, StyLishSaLH, Masta and staff members at
ExtraTorrent, TPB, H33T, KAT, 1337x, PublicHD, Ahashare, BTScene,LimeTorrents, TorrentMafia,
P2PDL, and all others.

Encoder Notes: Encoder Notes: Looking For Early Access To Anything You Can Provide DVDScr, R5, DVDR, BluRay, Direct
Audio, Music Releases and Seedboxes. We require dedicated servers, so as to do more and fast releases of movies.
If You Got anything to offer contact us at "prg@hush.com".